<svg width="160" height="160" viewBox="0 0 160 160" fill="none" xmlns="http://www.w3.org/2000/svg">
<path d="M156.04 92.9368C133.955 86.6251 26.0231 86.6251 3.94886 92.9368C1.96896 93.5056 0 92.0398 0 89.9724V13.7517C0 11.6952 1.99084 10.1966 3.9598 10.7983C26.0559 17.4927 133.955 17.4927 156.051 10.7983C158.02 10.1966 160 11.6952 160 13.7517V89.9833C160 92.0398 158.031 93.5056 156.051 92.9477L156.04 92.9368Z" fill="white"/>
<path d="M42.4311 78.3359H65.3476C72.2171 78.3359 77.7958 83.9147 77.7958 90.7841V134.867C77.7958 136.322 76.6144 137.503 75.1596 137.503H32.6081C31.1533 137.503 29.9719 136.322 29.9719 134.867V90.7841C29.9719 83.9147 35.5506 78.3359 42.4201 78.3359H42.4311Z" fill="#FF0013" stroke="white" stroke-miterlimit="10"/>
<path d="M94.6303 78.3359H117.547C124.416 78.3359 129.995 83.9147 129.995 90.7841V134.867C129.995 136.322 128.814 137.503 127.359 137.503H84.8184C83.3635 137.503 82.1821 136.322 82.1821 134.867V90.7841C82.1821 83.9147 87.7608 78.3359 94.6303 78.3359Z" fill="#FF0013" stroke="white" stroke-miterlimit="10"/>
<path d="M16.3205 89.9922H39.237C46.1065 89.9922 51.6853 95.5709 51.6853 102.44V146.523C51.6853 147.978 50.5039 149.159 49.049 149.159H6.50854C5.05369 149.159 3.87231 147.978 3.87231 146.523V102.44C3.87231 95.5709 9.45104 89.9922 16.3205 89.9922Z" fill="#FF0013" stroke="white" stroke-miterlimit="10"/>
<path d="M68.5307 89.9922H91.4473C98.3167 89.9922 103.895 95.5709 103.895 102.44V146.523C103.895 147.978 102.714 149.159 101.259 149.159H58.7187C57.2639 149.159 56.0825 147.978 56.0825 146.523V102.44C56.0825 95.5709 61.6612 89.9922 68.5307 89.9922Z" fill="#FF0013" stroke="white" stroke-miterlimit="10"/>
<path d="M120.741 89.9922H143.658C150.527 89.9922 156.106 95.5709 156.106 102.44V146.523C156.106 147.978 154.925 149.159 153.47 149.159H110.929C109.474 149.159 108.293 147.978 108.293 146.523V102.44C108.293 95.5709 113.872 89.9922 120.741 89.9922Z" fill="#FF0013" stroke="white" stroke-miterlimit="10"/>
<path d="M80.607 57.7593C80.1804 57.7593 79.7538 57.6499 79.3819 57.4311C78.6271 56.9936 78.1568 56.1841 78.1568 55.309V52.4868C78.1568 52.093 78.1349 51.6664 78.113 51.2617C78.0583 50.135 77.9927 49.074 78.474 48.4286C79.0975 47.5863 80.8149 47.0284 82.0728 46.6346C82.2478 46.5799 82.4119 46.5252 82.5651 46.4706C83.823 46.033 84.8841 45.2454 85.6279 44.1625C86.3717 43.1014 86.7546 41.7997 86.7108 40.498V40.4762C86.6233 38.8901 85.9451 37.4024 84.7966 36.2976C83.648 35.1928 82.1385 34.5693 80.5524 34.5474H80.5305C79.3928 34.5474 78.2771 34.8865 77.3036 35.51C76.341 36.1226 75.5643 36.9977 75.0721 38.0259C74.6892 38.8135 73.9126 39.3385 73.0375 39.4042C72.9718 39.4042 72.9172 39.4042 72.8515 39.4042C72.0421 39.4042 71.2764 38.9994 70.8169 38.3322C70.3247 37.6102 70.2481 36.6695 70.631 35.8819C71.5279 34.0114 72.9172 32.4362 74.6673 31.3314C76.4175 30.2266 78.4302 29.6359 80.5086 29.625H80.5742C83.462 29.6469 86.1858 30.7517 88.2641 32.7644C90.3315 34.7771 91.5348 37.468 91.6442 40.3558C91.7207 42.6967 91.0207 45.0485 89.6752 46.9737C88.3297 48.8989 86.3717 50.3647 84.1512 51.1195C83.6152 51.3054 83.0573 51.7649 83.0573 52.4868V55.309C83.0573 56.1841 82.5869 57.0045 81.8322 57.4311C81.4603 57.6499 81.0337 57.7593 80.607 57.7593Z" fill="#FF0013"/>
<path d="M80.6069 65.5771C79.9506 65.5771 79.3271 65.3255 78.8567 64.8551C78.3864 64.3848 78.1348 63.7613 78.1348 63.105C78.1348 62.4486 78.3973 61.8251 78.8567 61.3548C79.3161 60.8953 79.9615 60.6328 80.6069 60.6328C81.2523 60.6328 81.8977 60.8953 82.3571 61.3548C82.8275 61.8251 83.079 62.4486 83.079 63.105C83.079 63.7613 82.8275 64.3848 82.3571 64.8551C81.8867 65.3255 81.2632 65.5771 80.6069 65.5771Z" fill="#CC000F"/>
</svg>
