<?xml version="1.0" encoding="UTF-8"?>
<svg id="Layer_1" xmlns="http://www.w3.org/2000/svg" version="1.1" viewBox="0 0 1378 1024">
  <!-- Generator: Adobe Illustrator 29.5.1, SVG Export Plug-In . SVG Version: 2.1.0 Build 141)  -->
  <defs>
    <style>
      .st0 {
        fill: #fff;
      }
    </style>
  </defs>
  <path class="st0" d="M1339.08,39.38v945.23H275.69V39.38h1063.38M1339.08,0H275.69c-21.75,0-39.38,17.63-39.38,39.38v945.23c0,21.75,17.63,39.38,39.38,39.38h1063.38c21.75,0,39.38-17.63,39.38-39.38h0V39.38C1378.46,17.63,1360.83,0,1339.08,0t0,0Z"/>
  <path class="st0" d="M275.69,393.85h1063.38v39.38H275.69v-39.38ZM275.69,590.77h1063.38v39.38H275.69v-39.38ZM275.69,787.69h1063.38v39.38H275.69v-39.38ZM275.69,196.92h1063.38v39.38H275.69v-39.38Z"/>
  <path class="st0" d="M551.38,39.38v945.23h-39.38V39.38h39.38ZM827.08,39.38v945.23h-39.38V39.38h39.38ZM1102.77,39.38v945.23h-39.38V39.38h39.38Z"/>
  <path class="st0" d="M275.69,216.62h1063.38c13.13,0,19.69,6.56,19.69,19.69v157.54c0,13.13-6.56,19.69-19.69,19.69H275.69c-13.13,0-19.69-6.56-19.69-19.69v-157.54c0-13.13,6.56-19.69,19.69-19.69h0Z"/>
  <path class="st0" d="M1339.08,236.31v157.54H275.69v-157.54h1063.38M1339.08,196.92H275.69c-21.75,0-39.38,17.63-39.38,39.38v157.54c0,21.75,17.63,39.38,39.38,39.38h1063.38c21.75,0,39.38-17.63,39.38-39.38h0v-157.54c0-21.75-17.63-39.38-39.38-39.38h0Z"/>
  <path class="st0" d="M196.92,315.08l-118.15-118.15v236.31l118.15-118.15Z"/>
  <path class="st0" d="M78.77,277.27v75.62c0,1.05-.53,1.58-1.58,1.58H1.58C.53,354.46,0,353.94,0,352.89v-75.62c0-1.05.53-1.58,1.58-1.58h75.62c1.05,0,1.58.53,1.58,1.58Z"/>
</svg>