<?xml version="1.0" encoding="UTF-8"?>
<svg id="Layer_1" xmlns="http://www.w3.org/2000/svg" version="1.1" viewBox="0 0 1024 1024">
  <!-- Generator: Adobe Illustrator 29.5.1, SVG Export Plug-In . SVG Version: 2.1.0 Build 141)  -->
  <defs>
    <style>
      .st0 {
        fill: #fff;
      }
    </style>
  </defs>
  <path class="st0" d="M944,224v768H80V224h864M944,192H80c-17.67,0-32,14.33-32,32v768c0,17.67,14.33,32,32,32h864c17.67,0,32-14.33,32-32V224c0-17.67-14.33-32-32-32Z"/>
  <path class="st0" d="M80,512h864v32H80v-32ZM80,672h864v32H80v-32ZM80,832h864v32H80v-32ZM80,352h864v32H80v-32Z"/>
  <path class="st0" d="M304,224v768h-32V224h32ZM528,224v768h-32V224h32ZM752,224v768h-32V224h32Z"/>
  <path class="st0" d="M400,160l96-96h-192l96,96Z"/>
  <path class="st0" d="M430.72,64h-61.44c-.85,0-1.28-.43-1.28-1.28V1.28C368,.43,368.43,0,369.28,0h61.44c.85,0,1.28.43,1.28,1.28v61.44c0,.85-.43,1.28-1.28,1.28Z"/>
  <path class="st0" d="M304,208h192c10.67,0,16,5.33,16,16v768c0,10.67-5.33,16-16,16h-192c-10.67,0-16-5.33-16-16V224c0-10.67,5.33-16,16-16Z"/>
  <path class="st0" d="M496,224v768h-192V224h192M496,192h-192c-17.67,0-32,14.33-32,32v768c0,17.67,14.33,32,32,32h192c17.67,0,32-14.33,32-32V224c0-17.67-14.33-32-32-32Z"/>
</svg>