<?xml version="1.0" encoding="UTF-8"?>
<svg id="Layer_1" xmlns="http://www.w3.org/2000/svg" version="1.1" viewBox="0 0 1024 1024">
  <!-- Generator: Adobe Illustrator 29.5.1, SVG Export Plug-In . SVG Version: 2.1.0 Build 141)  -->
  <defs>
    <style>
      .st0 {
        fill: #fff;
      }
    </style>
  </defs>
  <path class="st0" d="M943.96,224.04v767.96H80V224.04h863.96M943.96,192.04H80c-17.67,0-32,14.33-32,32v767.96c0,17.67,14.33,32,32,32h863.96c17.67,0,32-14.33,32-32V224.04c0-17.67-14.33-32-32-32Z"/>
  <path class="st0" d="M80,512.02h863.96v32H80v-32ZM80,672.02h863.96v32H80v-32ZM80,832.01h863.96v32H80v-32ZM80,352.03h863.96v32H80v-32Z"/>
  <path class="st0" d="M303.99,224.04v767.96h-32V224.04h32ZM527.98,224.04v767.96h-32V224.04h32ZM751.97,224.04v767.96h-32V224.04h32Z"/>
  <path class="st0" d="M303.99,208.04h191.99c10.67,0,16,5.33,16,16v767.96c0,10.67-5.33,16-16,16h-191.99c-10.67,0-16-5.33-16-16V224.04c0-10.67,5.33-16,16-16h0Z"/>
  <path class="st0" d="M495.98,224.04v767.96h-191.99V224.04h191.99M495.98,192.04h-191.99c-17.67,0-32,14.33-32,32v767.96c0,17.67,14.33,32,32,32h191.99c17.67,0,32-14.33,32-32h0V224.04c0-17.67-14.33-32-32-32h0Z"/>
  <path class="st0" d="M468.98,160.04c-4.24.05-8.31-1.69-11.2-4.8l-127.99-127.99c-6.19-5.81-6.49-15.53-.69-21.71.22-.24.45-.47.69-.69,5.81-6.19,15.53-6.49,21.71-.69.24.22.47.45.69.69l127.99,127.99c6.19,5.81,6.49,15.53.69,21.71-.22.24-.45.47-.69.69-2.89,3.11-6.96,4.85-11.2,4.8Z"/>
  <path class="st0" d="M340.99,160.04c-4.24.05-8.31-1.69-11.2-4.8-6.19-5.81-6.49-15.53-.69-21.71.22-.24.45-.47.69-.69L457.78,4.85c5.81-6.19,15.53-6.49,21.71-.69.24.22.47.45.69.69,6.19,5.81,6.49,15.53.69,21.71-.22.24-.45.47-.69.69l-127.99,127.99c-2.89,3.11-6.96,4.85-11.2,4.8Z"/>
</svg>