<?xml version="1.0" encoding="UTF-8"?>
<svg id="Layer_1" xmlns="http://www.w3.org/2000/svg" version="1.1" viewBox="0 0 1378 1024">
  <!-- Generator: Adobe Illustrator 29.5.1, SVG Export Plug-In . SVG Version: 2.1.0 Build 141)  -->
  <defs>
    <style>
      .st0 {
        fill: #fff;
      }
    </style>
  </defs>
  <path class="st0" d="M1339.14,39.38v945.23H275.75V39.38h1063.38M1339.14,0H275.75c-21.75,0-39.38,17.63-39.38,39.38v945.23c0,21.75,17.63,39.38,39.38,39.38h1063.38c21.75,0,39.38-17.63,39.38-39.38h0V39.38C1378.52,17.63,1360.89,0,1339.14,0t0,0Z"/>
  <path class="st0" d="M275.75,393.85h1063.38v39.38H275.75v-39.38ZM275.75,590.77h1063.38v39.38H275.75v-39.38ZM275.75,787.69h1063.38v39.38H275.75v-39.38ZM275.75,196.92h1063.38v39.38H275.75v-39.38Z"/>
  <path class="st0" d="M551.44,39.38v945.23h-39.38V39.38h39.38ZM827.14,39.38v945.23h-39.38V39.38h39.38ZM1102.83,39.38v945.23h-39.38V39.38h39.38Z"/>
  <path class="st0" d="M275.75,216.62h1063.38c13.13,0,19.69,6.56,19.69,19.69v157.54c0,13.13-6.56,19.69-19.69,19.69H275.75c-13.13,0-19.69-6.56-19.69-19.69v-157.54c0-13.13,6.56-19.69,19.69-19.69Z"/>
  <path class="st0" d="M1339.14,236.31v157.54H275.75v-157.54h1063.38M1339.14,196.92H275.75c-21.75,0-39.38,17.63-39.38,39.38v157.54c0,21.75,17.63,39.38,39.38,39.38h1063.38c21.75,0,39.38-17.63,39.38-39.38h0v-157.54c0-21.75-17.63-39.38-39.38-39.38h0Z"/>
  <path class="st0" d="M177.29,413.54c-5.22.06-10.23-2.08-13.78-5.91L5.97,250.09c-7.61-7.14-7.99-19.11-.85-26.72.27-.29.56-.57.85-.85,7.14-7.61,19.11-7.99,26.72-.85.29.27.57.56.85.85l157.54,157.54c7.61,7.14,7.99,19.11.85,26.72-.27.29-.56.57-.85.85-3.56,3.83-8.56,5.97-13.78,5.91h0Z"/>
  <path class="st0" d="M19.75,413.54c-5.22.06-10.23-2.08-13.78-5.91-7.61-7.14-7.99-19.11-.85-26.72.27-.29.56-.57.85-.85l157.54-157.54c7.61-7.61,19.96-7.61,27.57,0s7.61,19.96,0,27.57h0L33.54,407.63c-3.56,3.83-8.56,5.97-13.78,5.91h0Z"/>
</svg>